<svg width="654" height="185" viewBox="0 0 654 185" fill="none" xmlns="http://www.w3.org/2000/svg">
<path d="M29.639 5.49698C32.078 2.44675 36.4986 1.93881 39.746 4.10835C55.9543 14.9366 76.5425 21.9724 100.647 21.9724C125.094 21.9724 146.753 14.9737 162.922 4.1896C166.202 2.00179 170.676 2.49678 173.131 5.58242L201.06 40.6913C201.881 41.724 201.71 43.2286 200.661 44.0294C173.972 64.4083 138.639 76.2987 100.647 76.2988C62.2524 76.2988 28.0396 63.5757 1.92772 44.0294C0.861323 43.2312 0.681649 41.7103 1.51356 40.6699L29.639 5.49698Z" fill="#DA0000"/>
<path d="M29.639 178.872C32.078 181.922 36.4986 182.43 39.746 180.26C55.9543 169.432 76.5425 162.396 100.647 162.396C125.094 162.396 146.753 169.395 162.922 180.179C166.202 182.367 170.676 181.872 173.131 178.786L201.06 143.677C201.881 142.645 201.71 141.14 200.661 140.339C173.972 119.96 138.639 108.07 100.647 108.07C62.2524 108.07 28.0396 120.793 1.92772 140.339C0.861323 141.137 0.681649 142.658 1.51356 143.699L29.639 178.872Z" fill="#DA0000"/>
<path d="M466.557 144.191C450.425 144.191 437.313 131.08 437.313 114.95V48.4711C437.313 43.9557 440.958 40.3108 445.474 40.3108C449.99 40.3108 453.635 43.9557 453.635 48.4711V114.95C453.635 122.077 459.429 127.871 466.557 127.871C473.684 127.871 479.478 122.077 479.478 114.95V48.4711C479.478 43.9557 483.124 40.3108 487.64 40.3108C492.155 40.3108 495.801 43.9557 495.801 48.4711V114.95C495.801 131.08 482.688 144.191 466.557 144.191Z" fill="#DA0000"/>
<path d="M453.171 114.95V48.4709C453.171 44.2119 449.733 40.7747 445.474 40.7747C441.214 40.7747 437.777 44.2118 437.776 48.4709V114.95C437.777 130.824 450.681 143.728 466.557 143.728C482.432 143.728 495.337 130.824 495.337 114.95V48.4709C495.337 44.2119 491.899 40.7748 487.64 40.7747C483.38 40.7747 479.943 44.2118 479.943 48.4709V114.95C479.942 122.333 473.94 128.334 466.557 128.334C459.173 128.334 453.171 122.333 453.171 114.95ZM496.265 114.95C496.265 131.337 482.945 144.655 466.557 144.656C450.169 144.656 436.849 131.337 436.849 114.95V48.4709C436.849 43.6995 440.702 39.8469 445.474 39.8469C450.246 39.8469 454.099 43.6995 454.099 48.4709V114.95C454.099 121.821 459.686 127.406 466.557 127.406C473.428 127.406 479.015 121.821 479.015 114.95V48.4709C479.015 43.6995 482.868 39.8469 487.64 39.8469C492.412 39.847 496.265 43.6995 496.265 48.4709V114.95Z" fill="#DA0000"/>
<path d="M508.719 144.191C492.587 144.191 479.475 131.08 479.475 114.95V48.4711C479.475 43.9557 483.12 40.3108 487.636 40.3108C492.152 40.3108 495.797 43.9557 495.797 48.4711V114.95C495.797 122.077 501.591 127.871 508.719 127.871C515.846 127.871 521.641 122.077 521.641 114.95V48.4711C521.641 43.9557 525.286 40.3108 529.802 40.3108C534.318 40.3108 537.963 43.9557 537.963 48.4711V114.95C537.963 131.08 524.851 144.191 508.719 144.191Z" fill="#DA0000"/>
<path d="M495.333 114.95V48.4709C495.333 44.2119 491.896 40.7747 487.636 40.7747C483.376 40.7747 479.939 44.2118 479.939 48.4709V114.95C479.939 130.824 492.843 143.728 508.719 143.728C524.595 143.728 537.499 130.824 537.499 114.95V48.4709C537.499 44.2119 534.062 40.7748 529.802 40.7747C525.542 40.7747 522.105 44.2118 522.105 48.4709V114.95C522.105 122.333 516.102 128.334 508.719 128.334C501.336 128.334 495.333 122.333 495.333 114.95ZM538.427 114.95C538.427 131.337 525.107 144.655 508.719 144.656C492.331 144.656 479.011 131.337 479.011 114.95V48.4709C479.011 43.6995 482.864 39.8469 487.636 39.8469C492.408 39.8469 496.261 43.6995 496.261 48.4709V114.95C496.261 121.821 501.848 127.406 508.719 127.406C515.59 127.406 521.177 121.821 521.177 114.95V48.4709C521.177 43.6995 525.03 39.8469 529.802 39.8469C534.574 39.8471 538.427 43.6995 538.427 48.4709V114.95Z" fill="#DA0000"/>
<path d="M315.85 144.491C287.259 144.491 264 121.234 264 92.6461C264 64.0579 287.259 40.801 315.85 40.801C320.366 40.801 324.011 44.446 324.011 48.9613C324.011 53.4767 320.366 57.1216 315.85 57.1216C296.264 57.1216 280.322 73.0614 280.322 92.6461C280.322 112.231 296.264 128.171 315.85 128.171C332.635 128.171 346.727 116.474 350.426 100.806L315.85 100.806C311.335 100.806 307.689 97.1614 307.689 92.6461C307.689 88.1307 311.335 84.4858 315.85 84.4858L359.54 84.4858C364.055 84.4858 367.701 88.1307 367.701 92.6461C367.701 121.234 344.441 144.491 315.85 144.491Z" fill="#DA0000"/>
<path d="M323.548 48.9612C323.548 44.7022 320.11 41.265 315.851 41.2649C287.516 41.2649 264.464 64.3139 264.464 92.6458C264.464 120.978 287.516 144.028 315.851 144.028C344.185 144.027 367.237 120.978 367.237 92.6458C367.237 88.3867 363.799 84.9495 359.539 84.9495L315.851 84.9495C311.591 84.9495 308.153 88.3867 308.153 92.6458C308.153 96.9049 311.591 100.343 315.851 100.343L351.013 100.343L350.878 100.913C347.13 116.785 332.856 128.634 315.851 128.634C296.008 128.634 279.858 112.487 279.858 92.6458C279.859 72.805 296.008 56.6575 315.851 56.6575C320.11 56.6573 323.548 53.2203 323.548 48.9612ZM324.476 48.9612C324.476 53.7327 320.622 57.5851 315.851 57.5852C296.52 57.5852 280.786 73.3174 280.786 92.6458C280.786 111.974 296.52 127.706 315.851 127.706C332.21 127.706 345.979 116.446 349.834 101.27L315.851 101.27C311.079 101.27 307.226 97.4173 307.226 92.6458C307.226 87.8743 311.079 84.0217 315.851 84.0217L359.539 84.0217C364.311 84.0217 368.164 87.8743 368.164 92.6458C368.164 121.49 344.698 144.955 315.851 144.955C287.003 144.955 263.536 121.49 263.536 92.6458C263.536 63.8015 287.003 40.3372 315.851 40.3372C320.622 40.3373 324.476 44.1898 324.476 48.9612Z" fill="#DA0000"/>
<path d="M402.074 144.709C397.558 144.709 393.913 141.064 393.913 136.549V48.9887C393.913 44.4733 397.558 40.8284 402.074 40.8284C406.59 40.8284 410.235 44.4733 410.235 48.9887V136.549C410.235 141.064 406.59 144.709 402.074 144.709Z" fill="#DA0000"/>
<path d="M409.771 48.9885C409.771 44.7294 406.334 41.2922 402.074 41.2922C397.815 41.2922 394.377 44.7294 394.377 48.9885V136.548C394.377 140.807 397.815 144.245 402.074 144.245C406.334 144.245 409.771 140.807 409.771 136.548V48.9885ZM410.699 136.548C410.699 141.32 406.846 145.173 402.074 145.173C397.302 145.173 393.449 141.32 393.449 136.548V48.9885C393.449 44.217 397.302 40.3645 402.074 40.3645C406.846 40.3645 410.699 44.217 410.699 48.9885V136.548Z" fill="#DA0000"/>
<path d="M570.455 144.182C569.503 144.182 568.523 144.019 567.571 143.638C563.355 142.033 561.233 137.328 562.838 133.111L594.911 48.5165C594.911 48.5165 594.993 48.3261 595.02 48.2173C597.169 43.1579 602.12 39.8938 607.615 39.8938C613.11 39.8938 618.061 43.1579 620.21 48.2173C620.265 48.3261 620.292 48.4077 620.319 48.5165L652.392 133.111C653.997 137.328 651.876 142.033 647.659 143.638C643.442 145.216 638.736 143.121 637.131 138.905L607.615 61.0289L578.099 138.905C576.848 142.169 573.746 144.182 570.455 144.182Z" fill="#DA0000"/>
<path d="M607.615 39.4299C613.296 39.43 618.416 42.8052 620.638 48.0364H620.636C620.694 48.1558 620.729 48.255 620.758 48.3655L652.826 132.947L652.974 133.365C654.38 137.71 652.14 142.429 647.824 144.072L647.821 144.073C643.368 145.738 638.394 143.528 636.697 139.071L607.615 62.3372L578.533 139.07L578.532 139.072C577.21 142.519 573.934 144.646 570.455 144.646C569.452 144.646 568.416 144.473 567.406 144.071C562.951 142.375 560.708 137.403 562.404 132.947L594.478 48.3518L594.481 48.343L594.484 48.3342L594.485 48.3333C594.486 48.3323 594.486 48.3305 594.487 48.3284C594.489 48.3239 594.492 48.3165 594.495 48.3079C594.502 48.2905 594.512 48.2664 594.523 48.2395C594.546 48.179 594.564 48.1281 594.569 48.1047L594.579 48.0696L594.593 48.0364C596.815 42.8051 601.935 39.4299 607.615 39.4299ZM607.615 40.3577C602.311 40.3577 597.533 43.5039 595.453 48.3821C595.432 48.4528 595.407 48.5261 595.388 48.5754C595.374 48.6097 595.362 48.6406 595.353 48.6624C595.35 48.6695 595.347 48.6757 595.345 48.6809L563.272 133.276C561.805 137.127 563.637 141.413 567.369 143.054L567.736 143.204L567.743 143.207C568.635 143.564 569.556 143.718 570.455 143.718C573.559 143.718 576.484 141.82 577.665 138.74L607.615 59.72L637.564 138.74L637.715 139.107C639.355 142.835 643.64 144.646 647.496 143.203C651.473 141.688 653.472 137.252 651.959 133.277L619.886 48.6809L619.876 48.6555L619.869 48.6292C619.848 48.5461 619.832 48.4974 619.796 48.425L619.789 48.4114L619.783 48.3987C617.707 43.5113 612.925 40.3577 607.615 40.3577Z" fill="#DA0000"/>
</svg>
